PathFileType	4	(X/Y/Z)	/Users/itak/Documents/Research/Walk-IL/dataset/trc/00236_00009.trc
DataRate	CameraRate	NumFrames	NumMarkers	Units	OrigDataRate	OrigDataStartFrame	OrigNumFrames
100.000000	100.000000	4	53	mm	100.000000	716	819
Frame#	Time	RPSI			LPSI			L3			STRN			T10			C7			CLAV			RBAK			LBAK			LSHO			LUPA			LAEL			LAOL			LWTS			LWPS			LFRA			LIFD			LHPS			LHTS			RSHO			RUPA			RAEL			RAOL			RWTS			RWPS			RFRA			RIFD			RHTS			RHPS			RBHD			LFHD			RFHD			LBHD			LHIP			RHIP			RASI			LASI			LKNE			LTHI			LANK			LTIP			LTOE			LMT5			LHEE			RKNE			RTHI			RANK			RTIP			RTOE			RMT1			RMT5			RHEE			LMT1			
		X1	Y1	Z1	X2	Y2	Z2	X3	Y3	Z3	X4	Y4	Z4	X5	Y5	Z5	X6	Y6	Z6	X7	Y7	Z7	X8	Y8	Z8	X9	Y9	Z9	X10	Y10	Z10	X11	Y11	Z11	X12	Y12	Z12	X13	Y13	Z13	X14	Y14	Z14	X15	Y15	Z15	X16	Y16	Z16	X17	Y17	Z17	X18	Y18	Z18	X19	Y19	Z19	X20	Y20	Z20	X21	Y21	Z21	X22	Y22	Z22	X23	Y23	Z23	X24	Y24	Z24	X25	Y25	Z25	X26	Y26	Z26	X27	Y27	Z27	X28	Y28	Z28	X29	Y29	Z29	X30	Y30	Z30	X31	Y31	Z31	X32	Y32	Z32	X33	Y33	Z33	X34	Y34	Z34	X35	Y35	Z35	X36	Y36	Z36	X37	Y37	Z37	X38	Y38	Z38	X39	Y39	Z39	X40	Y40	Z40	X41	Y41	Z41	X42	Y42	Z42	X43	Y43	Z43	X44	Y44	Z44	X45	Y45	Z45	X46	Y46	Z46	X47	Y47	Z47	X48	Y48	Z48	X49	Y49	Z49	X50	Y50	Z50	X51	Y51	Z51	X52	Y52	Z52	X53	Y53	Z53	

717	7.16	-251.3578491210938	1045.24755859375	580.6741943359375	-193.5612335205078	1046.154418945312	475.2777709960938	-218.0490264892578	1128.982299804688	507.4500427246094	7.690552234649658	1309.239379882812	623.2793579101562	-217.8174743652344	1256.758056640625	509.053955078125	-154.041259765625	1516.353637695312	532.7029418945312	-12.97828197479248	1427.158813476562	612.7413330078125	-259.367919921875	1380.402221679688	561.768798828125	-119.1445999145508	1477.597412109375	425.5810241699219	-14.51363372802734	1475.451171875	420.9266357421875	-0.2119486629962921	1357.594116210938	338.4905700683594	34.91458129882812	1148.266723632812	325.4018859863281	-49.04806900024414	1125.321899414062	333.9344787597656	120.6143035888672	940.1154174804688	444.7225341796875	135.9591979980469	913.3004150390625	366.1416320800781	74.19416809082031	1045.936645507812	334.8389282226562	162.0643310546875	753.4970092773438	470.60498046875	165.2048492431641	831.9505004882812	390.9659423828125	178.5185852050781	849.6060791015625	455.5871887207031	-183.2517700195312	1475.385009765625	709.6701049804688	-230.9163360595703	1411.48828125	761.5391845703125	-270.259765625	1133.791748046875	800.4463500976562	-261.84521484375	1121.505859375	707.0177612304688	-117.9207000732422	930.8807373046875	841.805419921875	-193.0612030029297	913.9506225585938	875.9461059570312	-249.6133880615234	1068.041015625	830.3058471679688	-90.32521057128906	743.0096435546875	851.27490234375	-81.82139587402344	815.2525024414062	883.1915283203125	-151.2216796875	811.1490478515625	902.5730590820312	-133.1386871337891	1673.658813476562	591.2695922851562	88.57817077636719	1707.22314453125	625.2086181640625	33.10305786132812	1708.345825195312	708.093017578125	-21.73330688476562	1676.259155273438	506.4302978515625	-40.26257705688477	978.5970458984375	401.0712280273438	-215.4395446777344	1010.746887207031	722.3606567382812	-112.7150726318359	1053.30126953125	733.4932861328125	25.63497924804688	1023.390625	489.6780090332031	-14.35340785980225	500.2499084472656	510.158447265625	-10.45183658599854	641.5652465820312	467.8463745117188	-128.3900451660156	35.08615493774414	528.9420776367188	-69.66215515136719	273.45556640625	511.2371215820312	57.52272415161133	40.38992309570312	654.7117309570312	-1.442821264266968	36.85797119140625	556.4288330078125	-202.722900390625	41.23148345947266	557.7614135742188	-134.0026702880859	521.4114990234375	756.231201171875	-155.6494293212891	790.4413452148438	771.3670654296875	-329.6501159667969	69.47911834716797	662.5485229492188	-151.88330078125	402.8568115234375	740.4022216796875	-136.3926544189453	66.50078582763672	737.8024291992188	-156.7952423095703	61.79663848876953	672.2779541015625	-254.6860198974609	53.54544448852539	742.4611206054688	-349.8964233398438	79.58782958984375	581.2535400390625	-22.92049217224121	34.57322311401367	670.4295654296875	
718	7.17	-250.1290435791016	1045.426391601562	582.4334106445312	-193.0075988769531	1046.255493164062	476.6548461914062	-217.15673828125	1129.25634765625	508.8759155273438	9.447176933288574	1309.169677734375	623.7457275390625	-216.5879516601562	1257.046875	510.4258422851562	-152.3844757080078	1516.498168945312	533.9295654296875	-11.15702152252197	1427.111694335938	613.3938598632812	-257.7743225097656	1380.640502929688	563.3303833007812	-117.8680114746094	1477.822265625	426.6512756347656	-13.23435592651367	1475.499389648438	421.6455688476562	0.6237697005271912	1357.615478515625	339.1828002929688	35.30587768554688	1148.16357421875	326.1395568847656	-48.79116821289062	1125.526000976562	334.5459899902344	119.8456497192383	939.4105224609375	445.290283203125	135.2169494628906	912.6500854492188	366.6918029785156	74.10091400146484	1045.633056640625	335.5012512207031	160.2668609619141	752.5318603515625	470.938720703125	163.9823608398438	831.1004028320312	391.4330139160156	177.2669219970703	848.5755615234375	456.1187438964844	-180.9639587402344	1475.495483398438	710.9943237304688	-228.5205078125	1411.620483398438	762.9854125976562	-267.873291015625	1133.951293945312	802.1394653320312	-259.8314514160156	1121.603759765625	708.6539306640625	-114.5224075317383	931.6830444335938	842.9105224609375	-189.4805297851562	914.379638671875	877.3770141601562	-246.9103851318359	1068.235473632812	831.9592895507812	-85.80731201171875	743.9585571289062	852.602783203125	-77.67878723144531	816.3400268554688	884.33203125	-146.9822540283203	811.85107421875	903.9583740234375	-131.2384796142578	1673.7041015625	592.4114990234375	90.5838623046875	1707.201049804688	625.76953125	35.32121276855469	1708.301391601562	708.8050537109375	-20.06702041625977	1676.309692382812	507.2788696289062	-40.29692077636719	978.5020141601562	401.460693359375	-213.1950225830078	1011.138366699219	724.0472412109375	-110.3320999145508	1053.537109375	734.2739868164062	26.29553413391113	1023.336364746094	489.5284729003906	-13.94054508209229	500.16455078125	510.2567749023438	-10.25347709655762	641.48486328125	467.9709777832031	-128.4049682617188	35.09952163696289	528.97412109375	-69.40834045410156	273.4140625	511.3121643066406	57.54494476318359	40.38228988647461	654.6808471679688	-1.434416532516479	36.816650390625	556.3775024414062	-202.7506561279297	41.26691436767578	557.8080444335938	-129.8377227783203	521.9771728515625	758.4824829101562	-152.6226348876953	791.0151977539062	773.161865234375	-320.8067932128906	66.89650726318359	671.31640625	-146.5760955810547	403.1725158691406	743.7549438476562	-126.3277816772461	67.15457916259766	743.5855712890625	-147.7074584960938	61.67626953125	678.4442749023438	-244.3603515625	52.78610992431641	750.1310424804688	-342.5503234863281	75.97785186767578	590.2555541992188	-22.91541290283203	34.5627555847168	670.4423828125	
719	7.18	-248.9342803955078	1045.59375	584.207275390625	-192.5033874511719	1046.341064453125	478.0438842773438	-216.3249816894531	1129.5146484375	510.3131408691406	11.16883087158203	1309.093383789062	624.180908203125	-215.4163208007812	1257.32080078125	511.8009033203125	-150.7757568359375	1516.637573242188	535.138916015625	-9.381265640258789	1427.048706054688	614.0137329101562	-256.2401733398438	1380.86181640625	564.892822265625	-116.6611633300781	1478.026489257812	427.7066955566406	-12.01549911499023	1475.531005859375	422.3318176269531	1.376782059669495	1357.613891601562	339.8460998535156	35.55945587158203	1148.035888671875	326.8524780273438	-48.67240905761719	1125.722534179688	335.1414794921875	118.8734741210938	938.6026611328125	445.7547912597656	134.2531585693359	911.9229125976562	367.1274719238281	73.83676147460938	1045.285034179688	336.1043395996094	158.1685638427734	751.4359130859375	471.0810852050781	162.4920043945312	830.1489868164062	391.7478332519531	175.7628631591797	847.4119873046875	456.5026550292969	-178.6984558105469	1475.592529296875	712.3095092773438	-226.1507873535156	1411.73388671875	764.42626953125	-265.5031127929688	1134.080810546875	803.8004760742188	-257.8071899414062	1121.653442382812	710.2238159179688	-111.2171096801758	932.3814086914062	843.9146118164062	-186.0216674804688	914.739990234375	878.7185668945312	-244.2425384521484	1068.398071289062	833.556884765625	-81.53977966308594	744.7715454101562	853.7632446289062	-73.72254943847656	817.2781372070312	885.3165893554688	-142.9262390136719	812.4443359375	905.2028198242188	-129.3832244873047	1673.744262695312	593.5289916992188	92.54648590087891	1707.149291992188	626.3131103515625	37.4970817565918	1708.22509765625	709.4981689453125	-18.44020843505859	1676.351928710938	508.1069030761719	-40.37313079833984	978.3921508789062	401.850830078125	-210.9784393310547	1011.510070800781	725.7412109375	-107.9586563110352	1053.760986328125	735.046142578125	26.90211296081543	1023.271057128906	489.3628540039062	-13.46322536468506	500.0791931152344	510.3807678222656	-10.04443073272705	641.3992919921875	468.1079711914062	-128.4162139892578	35.11550521850586	529.0073852539062	-69.11539459228516	273.3690795898438	511.4017944335938	57.57006454467773	40.37464141845703	654.6500854492188	-1.424940705299377	36.77547836303711	556.3285522460938	-202.7728576660156	41.30192565917969	557.8598022460938	-125.7771530151367	522.5208740234375	760.7164916992188	-149.6701202392578	791.5689697265625	774.9313354492188	-312.0055847167969	64.46757507324219	679.6910400390625	-141.3389129638672	403.4738159179688	746.9981689453125	-116.3600082397461	67.75430297851562	748.7852783203125	-138.7241668701172	61.59495162963867	684.039306640625	-234.0769500732422	52.02666473388672	757.2839965820312	-335.260986328125	72.64826965332031	598.920166015625	-22.92007637023926	34.53314971923828	670.468994140625	
720	7.19	-247.769775390625	1045.750854492188	585.993408203125	-192.0406188964844	1046.413208007812	479.4449462890625	-215.550048828125	1129.75634765625	511.761474609375	12.85611629486084	1309.013305664062	624.586669921875	-214.3044128417969	1257.578735351562	513.1831665039062	-149.2189331054688	1516.772827148438	536.3318481445312	-7.650719165802002	1426.974365234375	614.6004028320312	-254.7662048339844	1381.06689453125	566.45751953125	-115.5303573608398	1478.210083007812	428.7477111816406	-10.86404037475586	1475.548095703125	422.9836120605469	2.037179946899414	1357.590942382812	340.4771118164062	35.67036437988281	1147.885009765625	327.5396423339844	-48.69499588012695	1125.911743164062	335.7283935546875	117.7112503051758	937.7025756835938	446.113037109375	133.0724945068359	911.1273803710938	367.4450988769531	73.40000152587891	1044.896728515625	336.6456909179688	155.7860260009766	750.2220458984375	471.0300598144531	160.743896484375	829.1070556640625	391.9067077636719	174.0192413330078	846.1270751953125	456.7329406738281	-176.4563446044922	1475.67822265625	713.6148071289062	-223.8060150146484	1411.830078125	765.86376953125	-263.1453552246094	1134.18115234375	805.4328002929688	-255.7759399414062	1121.66455078125	711.736083984375	-108.0121994018555	932.969970703125	844.8214721679688	-182.6867065429688	915.03125	879.9735717773438	-241.6067962646484	1068.529663085938	835.1005249023438	-77.53308868408203	745.4412841796875	854.7554931640625	-69.95872497558594	818.0570068359375	886.1471557617188	-139.0629272460938	812.9220581054688	906.3079833984375	-127.5742645263672	1673.780883789062	594.62353515625	94.46457672119141	1707.070434570312	626.8382568359375	39.63119506835938	1708.120239257812	710.1710815429688	-16.85367584228516	1676.38671875	508.9136047363281	-40.48739624023438	978.2711791992188	402.2435302734375	-208.7997283935547	1011.859741210938	727.4299926757812	-105.6037445068359	1053.972412109375	735.8130493164062	27.45620918273926	1023.195861816406	489.1919860839844	-12.93206977844238	499.9942016601562	510.5230407714844	-9.82386589050293	641.3104248046875	468.2566528320312	-128.4239349365234	35.13371658325195	529.041015625	-68.79131317138672	273.32177734375	511.5007019042969	57.59791564941406	40.36691284179688	654.6194458007812	-1.413823366165161	36.73464584350586	556.2819213867188	-202.7895050048828	41.33759307861328	557.9151000976562	-121.8188934326172	523.04296875	762.924072265625	-146.7992553710938	792.09912109375	776.673583984375	-303.2757263183594	62.18355941772461	687.66455078125	-136.1753997802734	403.7583923339844	750.123291015625	-106.5189895629883	68.30514526367188	753.4063110351562	-129.8750457763672	61.55306243896484	689.070068359375	-223.8676910400391	51.26679611206055	763.9196166992188	-328.0575561523438	69.58433532714844	607.2362670898438	-22.93730545043945	34.48068618774414	670.511474609375	
